<svg xmlns="http://www.w3.org/2000/svg" width="900" height="900" version="1.1">
<g transform="translate(450 450) scale(1,-1)"><circle cx="0" cy="0" r="300" fill="none" stroke="black"/><circle cx="109.245" cy="4.930" r="0.780" fill="black" stroke="black"/>
<path d="M138.635,0.000L138.712,0.044L138.788,0.088L138.865,0.133L138.942,0.177L139.019,0.221L139.095,0.265L139.172,0.310L139.249,0.354L139.326,0.398L139.403,0.443L139.481,0.487L139.558,0.531L139.635,0.576L139.712,0.620L139.790,0.665L139.867,0.709L139.945,0.754L140.022,0.798L140.100,0.843L140.178,0.887L140.256,0.932L140.333,0.976L140.411,1.021L140.489,1.065L140.567,1.110L140.645,1.155L140.724,1.199L140.802,1.244L140.880,1.289L140.959,1.333L141.037,1.378L141.115,1.423L141.194,1.468L141.273,1.512L141.351,1.557L141.430,1.602L141.509,1.647L141.588,1.692L141.667,1.736L141.746,1.781L141.825,1.826L141.904,1.871L141.983,1.916L142.062,1.961L142.142,2.006L142.221,2.051L142.301,2.096L142.380,2.141L142.460,2.186L142.539,2.231L142.619,2.276L142.699,2.322L142.779,2.367L142.859,2.412L142.939,2.457L143.019,2.502L143.099,2.547L143.179,2.593L143.260,2.638L143.340,2.683L143.420,2.728L143.501,2.774L143.581,2.819L143.662,2.864L143.743,2.910L143.824,2.955L143.904,3.001L143.985,3.046L144.066,3.092L144.147,3.137L144.228,3.182L144.310,3.228L144.391,3.274L144.472,3.319L144.554,3.365L144.635,3.410L144.717,3.456L144.798,3.502L144.880,3.547L144.962,3.593L145.044,3.639L145.126,3.684L145.208,3.730L145.290,3.776L145.372,3.822L145.454,3.867L145.536,3.913L145.619,3.959L145.701,4.005L145.784,4.051L145.866,4.097L145.949,4.143L146.031,4.189L146.114,4.235L146.197,4.281L146.280,4.327L146.363,4.373L146.446,4.419L146.529,4.465L146.613,4.511L146.696,4.557L146.779,4.603L146.863,4.649L146.946,4.695L147.030,4.742L147.114,4.788L147.198,4.834L147.281,4.880L147.365,4.927L147.449,4.973L147.533,5.019L147.618,5.066L147.702,5.112L147.786,5.159L147.871,5.205L147.955,5.251L148.040,5.298L148.124,5.344L148.209,5.391L148.294,5.438L148.379,5.484L148.464,5.531L148.549,5.577L148.634,5.624L148.719,5.671L148.804,5.717L148.890,5.764L148.975,5.811L149.061,5.857L149.146,5.904L149.232,5.951L149.318,5.998L149.404,6.045L149.490,6.092L149.576,6.139L149.662,6.185L149.748,6.232L149.834,6.279L149.921,6.326L150.007,6.373L150.093,6.420L150.180,6.467L150.267,6.515L150.354,6.562L150.440,6.609L150.527,6.656L150.614,6.703L150.701,6.750L150.789,6.798L150.876,6.845L150.963,6.892L151.051,6.939L151.138,6.987L151.226,7.034L151.314,7.081L151.402,7.129L151.489,7.176L151.577,7.224L151.665,7.271L151.754,7.319L151.842,7.366L151.930,7.414L152.019,7.461L152.107,7.509L152.196,7.557L152.284,7.604L152.373,7.652L152.462,7.700L152.551,7.747L152.640,7.795L152.729,7.843L152.818,7.891L152.908,7.939L152.997,7.987L153.087,8.034L153.176,8.082L153.266,8.130L153.356,8.178L153.446,8.226L153.536,8.274L153.626,8.322" fill="none" stroke="black"/>
<circle cx="110.626" cy="0.000" r="9.714" fill="none" stroke="black"/>
<path d="M138.635,0.000L138.532,0.000L138.429,0.000L138.326,0.000L138.223,0.000L138.120,0.000L138.018,0.000L137.915,0.000L137.813,0.000L137.710,0.000L137.608,0.000L137.506,0.000L137.404,0.000L137.302,0.000L137.200,0.000L137.098,0.000L136.996,0.000L136.895,0.000L136.793,0.000L136.692,0.000L136.590,0.000L136.489,0.000L136.388,0.000L136.287,0.000L136.186,0.000L136.085,0.000L135.984,0.000L135.883,0.000L135.783,0.000L135.682,0.000L135.582,0.000L135.481,0.000L135.381,0.000L135.281,0.000L135.181,0.000L135.081,0.000L134.981,0.000L134.881,0.000L134.781,0.000L134.682,0.000L134.582,0.000L134.483,0.000L134.383,0.000L134.284,0.000L134.185,0.000L134.086,0.000L133.986,0.000L133.887,0.000L133.789,0.000L133.690,0.000L133.591,0.000L133.492,0.000L133.394,0.000L133.295,0.000L133.197,0.000L133.099,0.000L133.000,0.000L132.902,0.000L132.804,0.000L132.706,0.000L132.608,0.000L132.511,0.000L132.413,0.000L132.315,0.000L132.218,0.000L132.120,0.000L132.023,0.000L131.925,0.000L131.828,0.000L131.731,0.000L131.634,0.000L131.537,0.000L131.440,0.000L131.343,0.000L131.246,0.000L131.150,0.000L131.053,0.000L130.957,0.000L130.860,0.000L130.764,0.000L130.668,0.000L130.571,0.000L130.475,0.000L130.379,0.000L130.283,0.000L130.187,0.000L130.092,0.000L129.996,0.000L129.900,0.000L129.805,0.000L129.709,0.000L129.614,0.000L129.518,0.000L129.423,0.000L129.328,0.000L129.233,0.000L129.138,0.000L129.043,0.000L128.948,0.000L128.853,0.000L128.758,0.000L128.663,0.000L128.569,0.000L128.474,0.000L128.380,0.000L128.285,0.000L128.191,0.000L128.097,0.000L128.003,0.000L127.909,0.000L127.815,0.000L127.721,0.000L127.627,0.000L127.533,0.000L127.439,0.000L127.346,0.000L127.252,0.000L127.159,0.000L127.065,0.000L126.972,0.000L126.879,0.000L126.785,0.000L126.692,0.000L126.599,0.000L126.506,0.000L126.413,0.000L126.320,0.000L126.228,0.000L126.135,0.000L126.042,0.000L125.950,0.000L125.857,0.000L125.765,0.000L125.672,0.000L125.580,0.000L125.488,0.000L125.396,0.000L125.304,0.000L125.212,0.000L125.120,0.000L125.028,0.000L124.936,0.000L124.844,0.000L124.752,0.000L124.661,0.000L124.569,0.000L124.478,0.000L124.386,0.000L124.295,0.000L124.204,0.000L124.113,0.000L124.021,0.000L123.930,0.000L123.839,0.000L123.748,0.000L123.657,0.000L123.567,0.000L123.476,0.000L123.385,0.000L123.295,0.000L123.204,0.000L123.114,0.000L123.023,0.000L122.933,0.000L122.843,0.000L122.752,0.000L122.662,0.000L122.572,0.000L122.482,0.000L122.392,0.000L122.302,0.000L122.212,0.000L122.123,0.000L122.033,0.000L121.943,0.000L121.854,0.000L121.764,0.000L121.675,0.000L121.585,0.000L121.496,0.000L121.407,0.000L121.317,0.000L121.228,0.000L121.139,0.000L121.050,0.000L120.961,0.000L120.872,0.000L120.784,0.000L120.695,0.000L120.606,0.000L120.517,0.000L120.429,0.000L120.340,0.000" fill="none" stroke="black"/>
<path d="M124.093,0.000L124.178,-0.027L124.262,-0.055L124.347,-0.082L124.431,-0.110L124.516,-0.137L124.600,-0.165L124.685,-0.192L124.770,-0.220L124.855,-0.247L124.940,-0.275L125.025,-0.302L125.110,-0.330L125.195,-0.357L125.280,-0.385L125.365,-0.412L125.451,-0.440L125.536,-0.467L125.621,-0.495L125.707,-0.523L125.792,-0.550L125.878,-0.578L125.964,-0.606L126.049,-0.633L126.135,-0.661L126.221,-0.689L126.307,-0.716L126.393,-0.744L126.479,-0.772L126.565,-0.799L126.651,-0.827L126.737,-0.855L126.824,-0.883L126.910,-0.910L126.996,-0.938L127.083,-0.966L127.169,-0.994L127.256,-1.022L127.343,-1.049L127.429,-1.077L127.516,-1.105L127.603,-1.133L127.690,-1.161L127.777,-1.189L127.864,-1.217L127.951,-1.245L128.038,-1.273L128.126,-1.300L128.213,-1.328L128.300,-1.356L128.388,-1.384L128.475,-1.412L128.563,-1.440L128.651,-1.468L128.738,-1.496L128.826,-1.524L128.914,-1.552L129.002,-1.581L129.090,-1.609L129.178,-1.637L129.266,-1.665L129.354,-1.693L129.443,-1.721L129.531,-1.749L129.619,-1.777L129.708,-1.805L129.796,-1.834L129.885,-1.862L129.974,-1.890L130.062,-1.918L130.151,-1.946L130.240,-1.975L130.329,-2.003L130.418,-2.031L130.507,-2.059L130.596,-2.088L130.686,-2.116L130.775,-2.144L130.864,-2.173L130.954,-2.201L131.043,-2.229L131.133,-2.258L131.223,-2.286L131.312,-2.315L131.402,-2.343L131.492,-2.371L131.582,-2.400L131.672,-2.428L131.762,-2.457L131.852,-2.485L131.942,-2.514L132.033,-2.542L132.123,-2.571L132.214,-2.599L132.304,-2.628L132.395,-2.656L132.485,-2.685L132.576,-2.713L132.667,-2.742L132.758,-2.771L132.849,-2.799L132.940,-2.828L133.031,-2.856L133.122,-2.885L133.214,-2.914L133.305,-2.942L133.396,-2.971L133.488,-3.000L133.579,-3.029L133.671,-3.057L133.763,-3.086L133.855,-3.115L133.947,-3.144L134.038,-3.172L134.131,-3.201L134.223,-3.230L134.315,-3.259L134.407,-3.288L134.499,-3.317L134.592,-3.346L134.684,-3.374L134.777,-3.403L134.870,-3.432L134.962,-3.461L135.055,-3.490L135.148,-3.519L135.241,-3.548L135.334,-3.577L135.427,-3.606L135.520,-3.635L135.614,-3.664L135.707,-3.693L135.801,-3.722L135.894,-3.751L135.988,-3.781L136.081,-3.810L136.175,-3.839L136.269,-3.868L136.363,-3.897L136.457,-3.926L136.551,-3.955L136.645,-3.985L136.740,-4.014L136.834,-4.043L136.928,-4.072L137.023,-4.102L137.118,-4.131L137.212,-4.160L137.307,-4.190L137.402,-4.219L137.497,-4.248L137.592,-4.278L137.687,-4.307L137.782,-4.336L137.877,-4.366L137.973,-4.395" fill="none" stroke="black"/>
<path d="M138.635,0.000L138.719,-0.027L138.803,-0.054L138.887,-0.082L138.971,-0.109L139.055,-0.136L139.139,-0.164L139.223,-0.191L139.307,-0.218L139.392,-0.245L139.476,-0.273L139.561,-0.300L139.645,-0.327L139.730,-0.355L139.814,-0.382L139.899,-0.410L139.984,-0.437L140.069,-0.464L140.154,-0.492L140.239,-0.519L140.324,-0.547L140.409,-0.574L140.494,-0.602L140.580,-0.629L140.665,-0.657L140.750,-0.684L140.836,-0.712L140.921,-0.739L141.007,-0.767L141.093,-0.794L141.179,-0.822L141.264,-0.849L141.350,-0.877L141.436,-0.905L141.522,-0.932L141.608,-0.960L141.695,-0.988L141.781,-1.015L141.867,-1.043L141.954,-1.071L142.040,-1.098L142.127,-1.126L142.213,-1.154L142.300,-1.181L142.387,-1.209L142.474,-1.237L142.561,-1.265L142.648,-1.292L142.735,-1.320L142.822,-1.348L142.909,-1.376L142.996,-1.404L143.084,-1.432L143.171,-1.459L143.259,-1.487L143.346,-1.515L143.434,-1.543L143.522,-1.571L143.610,-1.599L143.698,-1.627L143.785,-1.655L143.874,-1.683L143.962,-1.711L144.050,-1.739L144.138,-1.767L144.226,-1.795L144.315,-1.823L144.403,-1.851L144.492,-1.879L144.581,-1.907L144.669,-1.935L144.758,-1.963L144.847,-1.991L144.936,-2.019L145.025,-2.048L145.114,-2.076L145.203,-2.104L145.293,-2.132L145.382,-2.160L145.472,-2.188L145.561,-2.217L145.651,-2.245L145.740,-2.273L145.830,-2.301L145.920,-2.330L146.010,-2.358L146.100,-2.386L146.190,-2.415L146.280,-2.443L146.370,-2.471L146.461,-2.500L146.551,-2.528L146.642,-2.557L146.732,-2.585L146.823,-2.613L146.914,-2.642L147.004,-2.670L147.095,-2.699L147.186,-2.727L147.277,-2.756L147.369,-2.784L147.460,-2.813L147.551,-2.841L147.642,-2.870L147.734,-2.898L147.826,-2.927L147.917,-2.956L148.009,-2.984L148.101,-3.013L148.193,-3.041L148.285,-3.070L148.377,-3.099L148.469,-3.127L148.561,-3.156L148.653,-3.185L148.746,-3.214L148.838,-3.242L148.931,-3.271L149.024,-3.300L149.116,-3.329L149.209,-3.357L149.302,-3.386L149.395,-3.415L149.488,-3.444L149.582,-3.473L149.675,-3.502L149.768,-3.531L149.862,-3.560L149.955,-3.588L150.049,-3.617L150.143,-3.646L150.237,-3.675L150.331,-3.704L150.425,-3.733L150.519,-3.762L150.613,-3.791L150.707,-3.820L150.802,-3.849L150.896,-3.879L150.991,-3.908L151.085,-3.937L151.180,-3.966L151.275,-3.995L151.370,-4.024L151.465,-4.053L151.560,-4.083L151.655,-4.112L151.751,-4.141L151.846,-4.170L151.942,-4.200L152.037,-4.229L152.133,-4.258L152.229,-4.287L152.324,-4.317L152.420,-4.346L152.517,-4.376L152.613,-4.405L152.709,-4.434L152.805,-4.464L152.902,-4.493L152.998,-4.523L153.095,-4.552L153.192,-4.582L153.289,-4.611L153.386,-4.641L153.483,-4.670L153.580,-4.700L153.677,-4.729L153.774,-4.759L153.872,-4.788L153.969,-4.818L154.067,-4.848L154.165,-4.877L154.263,-4.907L154.361,-4.937L154.459,-4.966L154.557,-4.996L154.655,-5.026L154.754,-5.056L154.852,-5.085L154.951,-5.115" fill="none" stroke="black"/>
<path d="M124.093,0.000L124.139,0.079L124.184,0.157L124.230,0.236L124.275,0.315L124.321,0.393L124.366,0.472L124.412,0.551L124.458,0.629L124.503,0.708L124.549,0.787L124.595,0.866L124.641,0.944L124.686,1.023L124.732,1.102L124.778,1.181L124.824,1.260L124.870,1.339L124.916,1.417L124.962,1.496L125.008,1.575L125.054,1.654L125.101,1.733L125.147,1.812L125.193,1.891L125.239,1.970L125.286,2.049L125.332,2.128L125.379,2.207L125.425,2.286L125.472,2.366L125.518,2.445L125.565,2.524L125.611,2.603L125.658,2.682L125.705,2.761L125.751,2.841L125.798,2.920L125.845,2.999L125.892,3.078L125.939,3.158L125.986,3.237L126.033,3.316L126.080,3.396L126.127,3.475L126.174,3.555L126.221,3.634L126.268,3.713L126.315,3.793L126.363,3.872L126.410,3.952L126.457,4.031L126.505,4.111L126.552,4.190L126.599,4.270L126.647,4.350L126.694,4.429L126.742,4.509L126.790,4.589L126.837,4.668L126.885,4.748L126.933,4.828L126.981,4.907L127.028,4.987L127.076,5.067L127.124,5.147L127.172,5.227L127.220,5.306L127.268,5.386L127.316,5.466L127.364,5.546L127.412,5.626L127.461,5.706L127.509,5.786L127.557,5.866L127.606,5.946L127.654,6.026L127.702,6.106L127.751,6.186L127.799,6.266L127.848,6.346L127.896,6.426L127.945,6.507L127.994,6.587L128.042,6.667L128.091,6.747L128.140,6.827L128.189,6.908L128.238,6.988L128.287,7.068L128.336,7.149L128.385,7.229L128.434,7.309L128.483,7.390L128.532,7.470L128.581,7.551L128.630,7.631L128.680,7.712L128.729,7.792L128.778,7.873L128.828,7.953L128.877,8.034L128.927,8.114L128.976,8.195L129.026,8.276L129.075,8.356L129.125,8.437L129.175,8.518L129.225,8.599L129.274,8.679L129.324,8.760L129.374,8.841L129.424,8.922L129.474,9.003L129.524,9.084L129.574,9.165L129.624,9.246L129.675,9.327L129.725,9.408L129.775,9.489L129.825,9.570L129.876,9.651L129.926,9.732L129.977,9.813L130.027,9.894L130.078,9.975L130.128,10.056L130.179,10.138L130.229,10.219L130.280,10.300L130.331,10.381L130.382,10.463L130.433,10.544L130.484,10.625L130.535,10.707L130.586,10.788L130.637,10.870L130.688,10.951L130.739,11.033L130.790,11.114L130.841,11.196L130.893,11.277L130.944,11.359L130.995,11.440L131.047,11.522L131.098,11.604L131.150,11.686L131.202,11.767L131.253,11.849L131.305,11.931L131.357,12.013L131.408,12.094L131.460,12.176L131.512,12.258L131.564,12.340L131.616,12.422L131.668,12.504L131.720,12.586" fill="none" stroke="black"/>
</g></svg>